<svg version="1.1" xmlns="http://www.w3.org/2000/svg" viewBox="0 0 1205.4614955357144 1121.2170758928573">
  <!-- svg-source:excalidraw -->
  <defs>
    <style>
      @font-face {
        font-family: "Virgil";
        src: url("https://excalidraw.com/FG_Virgil.woff2");
      }
      @font-face {
        font-family: "Cascadia";
        src: url("https://excalidraw.com/Cascadia.woff2");
      }
    </style>
  </defs>
  <rect x="0" y="0" width="1205.4614955357144" height="1121.2170758928573" fill="#ffffff"></rect><g><g transform="translate(288.2784598214286 46.94921875) rotate(0 -12.1796875 20.341796875)"><path d="M0 0 C-5.686084778619625 0.25476524195801176, -11.37216955723925 0.5095304839160235, -16.12890625 0.72265625 M0 0 C-4.814315608090328 0.21570559154679358, -9.628631216180656 0.43141118309358717, -16.12890625 0.72265625 M-16.12890625 0.72265625 C-19.74314946828963 1.8362338902297781, -23.35739268657926 2.9498115304595562, -30.58203125 5.17578125 M-16.12890625 0.72265625 C-21.25819868272083 2.3030328373788507, -26.387491115441662 3.8834094247577013, -30.58203125 5.17578125 M-30.58203125 5.17578125 C-31.611541030410443 5.938721533697025, -32.641050810820886 6.701661817394052, -35.39453125 8.7421875 M-30.58203125 5.17578125 C-31.70605041073286 6.008759735185959, -32.83006957146572 6.8417382203719175, -35.39453125 8.7421875 M-35.39453125 8.7421875 C-36.8046696253914 11.542522900019685, -38.214808000782796 14.34285830003937, -39.26171875 16.421875 M-35.39453125 8.7421875 C-36.80907063316772 11.551262679098727, -38.22361001633544 14.360337858197454, -39.26171875 16.421875 M-39.26171875 16.421875 C-38.86836435170844 22.24536394345705, -38.47500995341689 28.0688528869141, -38.26171875 31.2265625 M-39.26171875 16.421875 C-39.035440294723955 19.77185681834453, -38.80916183944792 23.121838636689063, -38.26171875 31.2265625 M-38.26171875 31.2265625 C-33.672457462202146 33.29376793976117, -29.083196174404293 35.36097337952233, -16.26953125 41.1328125 M-38.26171875 31.2265625 C-30.864103839066956 34.558774118850124, -23.466488928133913 37.89098573770025, -16.26953125 41.1328125 M-16.26953125 41.1328125 C-12.2107939575857 41.27460244907998, -8.152056665171402 41.41639239815995, -1.95703125 41.6328125 M-16.26953125 41.1328125 C-11.015525597141822 41.31635854900814, -5.761519944283645 41.49990459801629, -1.95703125 41.6328125 M-1.95703125 41.6328125 C1.7929373696650153 39.888888176560066, 5.5429059893300305 38.14496385312013, 10.44921875 35.86328125 M-1.95703125 41.6328125 C2.2894583674409663 39.65798089894197, 6.535947984881933 37.683149297883936, 10.44921875 35.86328125 M10.44921875 35.86328125 C11.816493484038801 30.606469706761345, 13.183768218077603 25.34965816352269, 14.90234375 18.7421875 M10.44921875 35.86328125 C11.971163071029878 30.01180584730355, 13.493107392059756 24.160330444607098, 14.90234375 18.7421875 M14.90234375 18.7421875 C13.819595908998963 15.151455867888217, 12.736848067997926 11.560724235776433, 11.765625 8.33984375 M14.90234375 18.7421875 C13.947408435549368 15.575322316460733, 12.992473121098737 12.408457132921466, 11.765625 8.33984375 M11.765625 8.33984375 C10.025333350879373 6.334798429453076, 8.285041701758747 4.329753108906152, 3.703125 -0.94921875 M11.765625 8.33984375 C9.093784085585503 5.261530913528259, 6.421943171171006 2.1832180770565177, 3.703125 -0.94921875 M3.703125 -0.94921875 C2.52958305565553 -0.6484057832534744, 1.3560411113110602 -0.34759281650694895, 0 0 M3.703125 -0.94921875 C2.6326846753581776 -0.6748337300759886, 1.5622443507163553 -0.40044871015197714, 0 0" stroke="#000000" stroke-width="1" fill="none"></path></g></g><g><g transform="translate(277.7901785714286 91.28515625) rotate(0 -12.126953125 38.638671875)"><path d="M0 0 C-0.19165973448070872 18.47362122893901, -0.38331946896141744 36.94724245787802, -0.50390625 48.5703125 M0 0 C-0.11529294053798367 11.112809477901465, -0.23058588107596734 22.22561895580293, -0.50390625 48.5703125 M-0.50390625 48.5703125 C-1.0085092492590775 48.5703125, -1.513112248518155 48.5703125, -2.23828125 48.5703125 M-0.50390625 48.5703125 C-0.8904876319269533 48.5703125, -1.2770690138539067 48.5703125, -2.23828125 48.5703125 M-2.23828125 48.5703125 C-10.77281867699203 59.69882838909943, -19.30735610398406 70.82734427819886, -24.25390625 77.27734375 M-2.23828125 48.5703125 C-8.15250529495097 56.28209967287876, -14.06672933990194 63.993886845757515, -24.25390625 77.27734375" stroke="#000000" stroke-width="1" fill="none"></path></g></g><g><g transform="translate(276.2198660714286 141.38671875) rotate(0 10.873046875 13.826171875)"><path d="M0 0 C8.5738493008761 10.902511083330683, 17.1476986017522 21.805022166661367, 21.74609375 27.65234375 M0 0 C6.6360195446945 8.43836579071176, 13.272039089389 16.87673158142352, 21.74609375 27.65234375" stroke="#000000" stroke-width="1" fill="none"></path></g></g><g><g transform="translate(243.1026785714286 112.83203125) rotate(0 31.294921875 0.361328125)"><path d="M0 0 C16.904292447878472 0.19517531691053594, 33.808584895756944 0.3903506338210719, 62.58984375 0.72265625 M0 0 C17.639656809511873 0.2036657623266365, 35.279313619023746 0.407331524653273, 62.58984375 0.72265625" stroke="#000000" stroke-width="1" fill="none"></path></g></g><g><g transform="translate(56.00111607142861 257.88671875) rotate(0 228.76953125000003 -1.390625)"><path d="M0 0 C115.57072762354437 -0.7025216261245077, 231.14145524708874 -1.4050432522490155, 457.5390625 -2.78125 M0 0 C129.52281446200868 -0.7873323990177596, 259.04562892401736 -1.5746647980355193, 457.5390625 -2.78125" stroke="#000000" stroke-width="1" fill="none"></path></g></g><g transform="translate(257.7198660714286 10) rotate(0 16.5 10)"><text x="0" y="14" font-family="Virgil, Segoe UI Emoji" font-size="16px" fill="#000000" text-anchor="start" style="white-space: pre;" direction="ltr">user</text></g><g transform="translate(531.9425223214287 241.3203125) rotate(0 55.5 10)"><text x="0" y="14" font-family="Virgil, Segoe UI Emoji" font-size="16px" fill="#000000" text-anchor="start" style="white-space: pre;" direction="ltr">user interface</text></g><g><g transform="translate(226.5714285714286 138.04296875) rotate(0 -23.62109375 47.9375)"><path d="M0 0 C-15.460417308237083 31.375928759167437, -30.920834616474167 62.75185751833487, -47.2421875 95.875 M0 0 C-12.95889083160073 26.299240662378725, -25.91778166320146 52.59848132475745, -47.2421875 95.875" stroke="#000000" stroke-width="1" fill="none"></path></g><g transform="translate(226.5714285714286 138.04296875) rotate(0 -23.62109375 47.9375)"><path d="M-43.98572313449125 66.05226639229443 C-45.051429459799934 75.8120157021145, -46.117135785108616 85.57176501193456, -47.2421875 95.875 M-43.98572313449125 66.05226639229443 C-44.878996042517066 74.23286872198474, -45.77226895054288 82.41347105167506, -47.2421875 95.875" stroke="#000000" stroke-width="1" fill="none"></path></g><g transform="translate(226.5714285714286 138.04296875) rotate(0 -23.62109375 47.9375)"><path d="M-25.577907418571563 75.12267558673432 C-32.667731757070115 81.91405449028326, -39.75755609556867 88.70543339383221, -47.2421875 95.875 M-25.577907418571563 75.12267558673432 C-31.520583983251242 80.81519578541209, -37.46326054793092 86.50771598408987, -47.2421875 95.875" stroke="#000000" stroke-width="1" fill="none"></path></g></g><g transform="translate(69.13002232142861 151.9296875) rotate(0 44 10)"><text x="0" y="14" font-family="Virgil, Segoe UI Emoji" font-size="16px" fill="#000000" text-anchor="start" style="white-space: pre;" direction="ltr">user action</text></g><g><g transform="translate(386.2393973214286 229.17578125) rotate(0 -24.2265625 -47.306640625)"><path d="M0 0 C-18.701176835304068 -36.51734957496774, -37.402353670608136 -73.03469914993548, -48.453125 -94.61328125 M0 0 C-18.919191764331483 -36.943062215726606, -37.838383528662966 -73.88612443145321, -48.453125 -94.61328125" stroke="#000000" stroke-width="1" fill="none"></path></g><g transform="translate(386.2393973214286 229.17578125) rotate(0 -24.2265625 -47.306640625)"><path d="M-26.470500452141664 -74.19847735704289 C-34.95500891209332 -82.07786300369096, -43.43951737204497 -89.95724865033904, -48.453125 -94.61328125 M-26.470500452141664 -74.19847735704289 C-35.053919773480224 -82.16971945302899, -43.637339094818785 -90.14096154901509, -48.453125 -94.61328125" stroke="#000000" stroke-width="1" fill="none"></path></g><g transform="translate(386.2393973214286 229.17578125) rotate(0 -24.2265625 -47.306640625)"><path d="M-44.73584061651564 -64.84447548268203 C-46.17057970925022 -76.33417198482576, -47.6053188019848 -87.82386848696949, -48.453125 -94.61328125 M-44.73584061651564 -64.84447548268203 C-46.18730563747549 -76.46811678356872, -47.63877065843534 -88.09175808445542, -48.453125 -94.61328125" stroke="#000000" stroke-width="1" fill="none"></path></g></g><g transform="translate(386.4503348214286 166.60546875) rotate(0 44 10)"><text x="0" y="14" font-family="Virgil, Segoe UI Emoji" font-size="16px" fill="#000000" text-anchor="start" style="white-space: pre;" direction="ltr">updated UI</text></g><g><g transform="translate(165.19487237260387 262.4489330969827) rotate(0 5.587632837007305 43.77713643615914)"><path d="M0 0 C2.7945602196682175 21.894395638386584, 5.589120439336435 43.78879127677317, 11.17526567401461 87.55427287231828 M0 0 C3.966007742641678 31.072274632396585, 7.932015485283356 62.14454926479317, 11.17526567401461 87.55427287231828" stroke="#000000" stroke-width="1" fill="none"></path></g><g transform="translate(165.19487237260387 262.4489330969827) rotate(0 5.587632837007305 43.77713643615914)"><path d="M-2.572027947003253 60.88946613951931 C0.8657104479528628 67.55744257375221, 4.3034488429089786 74.22541900798511, 11.17526567401461 87.55427287231828 M-2.572027947003253 60.88946613951931 C2.30677086921665 70.3525816522205, 7.185569685436553 79.81569716492166, 11.17526567401461 87.55427287231828" stroke="#000000" stroke-width="1" fill="none"></path></g><g transform="translate(165.19487237260387 262.4489330969827) rotate(0 5.587632837007305 43.77713643615914)"><path d="M17.784035170238294 58.29125584150303 C16.131402930984443 65.60895778141692, 14.47877069173059 72.92665972133082, 11.17526567401461 87.55427287231828 M17.784035170238294 58.29125584150303 C15.438638491902196 68.67645432382028, 13.0932418135661 79.06165280613752, 11.17526567401461 87.55427287231828" stroke="#000000" stroke-width="1" fill="none"></path></g></g><g transform="translate(24.817522321428612 287.765625) rotate(0 46.5 20)"><text x="0" y="14" font-family="Virgil, Segoe UI Emoji" font-size="16px" fill="#000000" text-anchor="start" style="white-space: pre;" direction="ltr">LISTENERS</text><text x="0" y="34" font-family="Virgil, Segoe UI Emoji" font-size="16px" fill="#000000" text-anchor="start" style="white-space: pre;" direction="ltr"></text></g><g transform="translate(161.59933035714295 379.4916294642857) rotate(0 135.18945312499994 138.67968750000003)"><path d="M0 0 C81.63120229486483 0, 163.26240458972967 0, 270.37890624999994 0 M0 0 C103.21083750273573 0, 206.42167500547146 0, 270.37890624999994 0 M270.37890624999994 0 C270.37890624999994 90.39667101624218, 270.37890624999994 180.79334203248436, 270.37890624999994 277.359375 M270.37890624999994 0 C270.37890624999994 70.84733413184732, 270.37890624999994 141.69466826369464, 270.37890624999994 277.359375 M270.37890624999994 277.359375 C200.80438992774464 277.359375, 131.22987360548936 277.359375, 0 277.359375 M270.37890624999994 277.359375 C210.50910114573304 277.359375, 150.6392960414661 277.359375, 0 277.359375 M0 277.359375 C0 211.06588221135752, 0 144.77238942271507, 0 0 M0 277.359375 C0 183.8724257564478, 0 90.38547651289556, 0 0" stroke="#000000" stroke-width="1" fill="none"></path></g><g transform="translate(214.06808035714272 928.4921875) rotate(0 60.20703125 64.44921875)"><path d="M61 0 C73.03739474743998 13.169115621130913, 85.07478949487995 26.338231242261827, 120.4140625 65 M61 0 C80.10086705557842 20.89667506935075, 99.20173411115684 41.7933501387015, 120.4140625 65 M120.4140625 65 C105.09719272498114 81.47293594870207, 89.78032294996228 97.94587189740415, 61 128.8984375 M120.4140625 65 C102.33632079478048 84.44218927113616, 84.25857908956095 103.88437854227232, 61 128.8984375 M61 128.8984375 C36.918744421843435 103.67295218061699, 12.83748884368687 78.44746686123398, 0 65 M61 128.8984375 C42.73450409537181 109.76504982019033, 24.469008190743622 90.63166214038066, 0 65 M0 65 C16.171923502441498 47.767622497398406, 32.343847004882996 30.535244994796813, 61 0 M0 65 C21.21805732185021 42.39059465704486, 42.43611464370042 19.781189314089715, 61 0" stroke="#000000" stroke-width="1" fill="none"></path></g><g transform="translate(240.27901785714272 979.9453125) rotate(0 29 10)"><text x="29" y="14" font-family="Virgil, Segoe UI Emoji" font-size="16px" fill="#000000" text-anchor="middle" style="white-space: pre;" direction="ltr">STATE</text></g><g transform="translate(174.57589285714295 388.3470982142857) rotate(0 117.5 150.00000000000003)"><text x="0" y="14" font-family="Virgil, Segoe UI Emoji" font-size="16px" fill="#000000" text-anchor="start" style="white-space: pre;" direction="ltr">         HANDLERS:</text><text x="0" y="34" font-family="Virgil, Segoe UI Emoji" font-size="16px" fill="#000000" text-anchor="start" style="white-space: pre;" direction="ltr">0. Create a new log entry</text><text x="0" y="54" font-family="Virgil, Segoe UI Emoji" font-size="16px" fill="#000000" text-anchor="start" style="white-space: pre;" direction="ltr">1. Gather data</text><text x="0" y="74" font-family="Virgil, Segoe UI Emoji" font-size="16px" fill="#000000" text-anchor="start" style="white-space: pre;" direction="ltr">  - from event</text><text x="0" y="94" font-family="Virgil, Segoe UI Emoji" font-size="16px" fill="#000000" text-anchor="start" style="white-space: pre;" direction="ltr">  - from DOM</text><text x="0" y="114" font-family="Virgil, Segoe UI Emoji" font-size="16px" fill="#000000" text-anchor="start" style="white-space: pre;" direction="ltr">  - from state</text><text x="0" y="134" font-family="Virgil, Segoe UI Emoji" font-size="16px" fill="#000000" text-anchor="start" style="white-space: pre;" direction="ltr">3. perform core logic</text><text x="0" y="154" font-family="Virgil, Segoe UI Emoji" font-size="16px" fill="#000000" text-anchor="start" style="white-space: pre;" direction="ltr">  - logic function are called  </text><text x="0" y="174" font-family="Virgil, Segoe UI Emoji" font-size="16px" fill="#000000" text-anchor="start" style="white-space: pre;" direction="ltr">  - no DOM happens here!</text><text x="0" y="194" font-family="Virgil, Segoe UI Emoji" font-size="16px" fill="#000000" text-anchor="start" style="white-space: pre;" direction="ltr">4. update application</text><text x="0" y="214" font-family="Virgil, Segoe UI Emoji" font-size="16px" fill="#000000" text-anchor="start" style="white-space: pre;" direction="ltr">  - save changes to state</text><text x="0" y="234" font-family="Virgil, Segoe UI Emoji" font-size="16px" fill="#000000" text-anchor="start" style="white-space: pre;" direction="ltr">  - view functions are called</text><text x="0" y="254" font-family="Virgil, Segoe UI Emoji" font-size="16px" fill="#000000" text-anchor="start" style="white-space: pre;" direction="ltr">  - update the UI</text><text x="0" y="274" font-family="Virgil, Segoe UI Emoji" font-size="16px" fill="#000000" text-anchor="start" style="white-space: pre;" direction="ltr"></text><text x="0" y="294" font-family="Virgil, Segoe UI Emoji" font-size="16px" fill="#000000" text-anchor="start" style="white-space: pre;" direction="ltr"></text></g><g transform="translate(69.84040178571428 801.3526785714284) rotate(0 51.833984375 45.56640625)"><path d="M51.833984375 0 C60.60612896285973 -0.641889627920385, 71.73092312235228 2.7149122050689014, 79.5354935998202 7.053028574776839 C87.34006407728812 11.391144944484775, 94.7021746690403 18.695422329472446, 98.66140723980752 26.028698218247627 C102.62063981057473 33.3619741070228, 104.40265961482538 42.99442113977493, 103.29088902442349 51.05268390742792 C102.1791184340216 59.11094667508091, 97.82938504705865 68.0896330363933, 91.99078369739618 74.37827482416557 C86.15218234773371 80.66691661193785, 77.01724891674156 86.21229760289998, 68.25928092644868 88.78453463406157 C59.50131293615579 91.35677166522316, 48.409093787490704 91.75215581042247, 39.44297575563885 89.8116970111351 C30.476857723786992 87.87123821184773, 20.861186905453202 82.99422587946756, 14.462572735337552 77.14178183833732 C8.063958565221903 71.28933779720708, 2.9015729598808955 62.649712627023334, 1.0512907349449492 54.69703276435366 C-0.7989914899909973 46.74435290168398, 0.09003516716830395 37.01669593773795, 3.360879385721873 29.425702662319257 C6.631723604275441 21.834709386900567, 13.296945278042067 14.030425222124691, 20.676356046266363 9.15107311184152 C28.05576681449066 4.271721001558348, 42.44440594027871 1.6747688525938156, 47.63734399506765 0.1495900006202291 C52.83028204985659 -1.3755888513533574, 51.134544311677935 -0.12695635406329586, 51.83398437499999 0 C52.53342443832205 0.12695635406329586, 51.833984375 0.15188802083333763, 51.833984375 0.9113281250000043 M51.833984375 0 C60.60612896285973 -0.641889627920385, 71.73092312235228 2.7149122050689014, 79.5354935998202 7.053028574776839 C87.34006407728812 11.391144944484775, 94.7021746690403 18.695422329472446, 98.66140723980752 26.028698218247627 C102.62063981057473 33.3619741070228, 104.40265961482538 42.99442113977493, 103.29088902442349 51.05268390742792 C102.1791184340216 59.11094667508091, 97.82938504705865 68.0896330363933, 91.99078369739618 74.37827482416557 C86.15218234773371 80.66691661193785, 77.01724891674156 86.21229760289998, 68.25928092644868 88.78453463406157 C59.50131293615579 91.35677166522316, 48.409093787490704 91.75215581042247, 39.44297575563885 89.8116970111351 C30.476857723786992 87.87123821184773, 20.861186905453202 82.99422587946756, 14.462572735337552 77.14178183833732 C8.063958565221903 71.28933779720708, 2.9015729598808955 62.649712627023334, 1.0512907349449492 54.69703276435366 C-0.7989914899909973 46.74435290168398, 0.09003516716830395 37.01669593773795, 3.360879385721873 29.425702662319257 C6.631723604275441 21.834709386900567, 13.296945278042067 14.030425222124691, 20.676356046266363 9.15107311184152 C28.05576681449066 4.271721001558348, 42.44440594027871 1.6747688525938156, 47.63734399506765 0.1495900006202291 C52.83028204985659 -1.3755888513533574, 51.134544311677935 -0.12695635406329586, 51.83398437499999 0 C52.53342443832205 0.12695635406329586, 51.833984375 0.15188802083333763, 51.833984375 0.9113281250000043" stroke="#000000" stroke-width="1" fill="none"></path></g><g transform="translate(90.17438616071428 834.4190848214284) rotate(0 27.5 10)"><text x="27.5" y="14" font-family="Virgil, Segoe UI Emoji" font-size="16px" fill="#000000" text-anchor="middle" style="white-space: pre;" direction="ltr">LOGIC</text></g><g transform="translate(762.5463169642856 422.681361607143) rotate(0 123 50)"><text x="0" y="14" font-family="Virgil, Segoe UI Emoji" font-size="16px" fill="#000000" text-anchor="start" style="white-space: pre;" direction="ltr">LOGIC (functions):</text><text x="0" y="34" font-family="Virgil, Segoe UI Emoji" font-size="16px" fill="#000000" text-anchor="start" style="white-space: pre;" direction="ltr">+ all arguments are js data</text><text x="0" y="54" font-family="Virgil, Segoe UI Emoji" font-size="16px" fill="#000000" text-anchor="start" style="white-space: pre;" direction="ltr">+ returns js data</text><text x="0" y="74" font-family="Virgil, Segoe UI Emoji" font-size="16px" fill="#000000" text-anchor="start" style="white-space: pre;" direction="ltr">- does not use script variables</text><text x="0" y="94" font-family="Virgil, Segoe UI Emoji" font-size="16px" fill="#000000" text-anchor="start" style="white-space: pre;" direction="ltr">- does not use "document"</text></g><g transform="translate(394.78125000000006 802.2650669642858) rotate(0 53.611328125 47.39453125)"><path d="M53.611328125 0 C62.53878918538186 -0.6718743169466883, 73.81020727216554 2.7134441514096084, 81.80331042094271 7.0820722331987085 C89.79641356971987 11.45070031498781, 97.36985573470955 18.780103449980754, 101.56994701766297 26.2117684907346 C105.77003830061639 33.64343353148844, 107.8520015750335 43.39835886087279, 107.0038581186632 51.67206247772178 C106.15571466229291 59.94576609457077, 102.12399163496956 69.21089474124888, 96.48108627944123 75.85399019182853 C90.8381809239129 82.49708564240818, 81.89767658918868 88.5034774525241, 73.14642598549327 91.53063518119971 C64.39517538179786 94.55779290987533, 53.21781393977731 95.51040109055104, 43.97358265726879 94.01693656388221 C34.72935137476028 92.52347203721338, 24.65555540252966 88.13760382886048, 17.68103829044216 82.56984802118671 C10.70652117835466 77.00209221351295, 4.74690598768977 68.58849105583347, 2.1264799847437885 60.610401717839665 C-0.4939460182021933 52.632312379845864, -0.558313112183344 42.7054342477582, 1.9584822727662683 34.701311993223904 C4.47527765771588 26.69718973868961, 10.325395158680728 18.22374265218736, 17.227252294441463 12.585668190633896 C24.1291094302022 6.94759372908043, 37.30561244890427 2.9704765890087543, 43.36962508733069 0.872865223903105 C49.43363772575711 -1.2247461412025444, 51.904377618721774 -0.01250423351614908, 53.61132812499999 0 C55.31827863127821 0.01250423351614908, 53.611328125 0.1579817708333332, 53.611328125 0.9478906249999994 M53.611328125 0 C62.53878918538186 -0.6718743169466883, 73.81020727216554 2.7134441514096084, 81.80331042094271 7.0820722331987085 C89.79641356971987 11.45070031498781, 97.36985573470955 18.780103449980754, 101.56994701766297 26.2117684907346 C105.77003830061639 33.64343353148844, 107.8520015750335 43.39835886087279, 107.0038581186632 51.67206247772178 C106.15571466229291 59.94576609457077, 102.12399163496956 69.21089474124888, 96.48108627944123 75.85399019182853 C90.8381809239129 82.49708564240818, 81.89767658918868 88.5034774525241, 73.14642598549327 91.53063518119971 C64.39517538179786 94.55779290987533, 53.21781393977731 95.51040109055104, 43.97358265726879 94.01693656388221 C34.72935137476028 92.52347203721338, 24.65555540252966 88.13760382886048, 17.68103829044216 82.56984802118671 C10.70652117835466 77.00209221351295, 4.74690598768977 68.58849105583347, 2.1264799847437885 60.610401717839665 C-0.4939460182021933 52.632312379845864, -0.558313112183344 42.7054342477582, 1.9584822727662683 34.701311993223904 C4.47527765771588 26.69718973868961, 10.325395158680728 18.22374265218736, 17.227252294441463 12.585668190633896 C24.1291094302022 6.94759372908043, 37.30561244890427 2.9704765890087543, 43.36962508733069 0.872865223903105 C49.43363772575711 -1.2247461412025444, 51.904377618721774 -0.01250423351614908, 53.61132812499999 0 C55.31827863127821 0.01250423351614908, 53.611328125 0.1579817708333332, 53.611328125 0.9478906249999994" stroke="#000000" stroke-width="1" fill="none"></path></g><g transform="translate(418.39257812500006 837.1595982142858) rotate(0 25 10)"><text x="25" y="14" font-family="Virgil, Segoe UI Emoji" font-size="16px" fill="#000000" text-anchor="middle" style="white-space: pre;" direction="ltr">VIEWS</text></g><g transform="translate(756.7114955357142 269.85323660714283) rotate(0 132 70)"><text x="0" y="14" font-family="Virgil, Segoe UI Emoji" font-size="16px" fill="#000000" text-anchor="start" style="white-space: pre;" direction="ltr">VIEWS (functions):</text><text x="0" y="34" font-family="Virgil, Segoe UI Emoji" font-size="16px" fill="#000000" text-anchor="start" style="white-space: pre;" direction="ltr">+ all arguments are js data</text><text x="0" y="54" font-family="Virgil, Segoe UI Emoji" font-size="16px" fill="#000000" text-anchor="start" style="white-space: pre;" direction="ltr">+ return value is a DOM element</text><text x="0" y="74" font-family="Virgil, Segoe UI Emoji" font-size="16px" fill="#000000" text-anchor="start" style="white-space: pre;" direction="ltr">- does not use script variables</text><text x="0" y="94" font-family="Virgil, Segoe UI Emoji" font-size="16px" fill="#000000" text-anchor="start" style="white-space: pre;" direction="ltr">- does not read from the UI</text><text x="0" y="114" font-family="Virgil, Segoe UI Emoji" font-size="16px" fill="#000000" text-anchor="start" style="white-space: pre;" direction="ltr">- does not write to the UI</text><text x="0" y="134" font-family="Virgil, Segoe UI Emoji" font-size="16px" fill="#000000" text-anchor="start" style="white-space: pre;" direction="ltr"></text></g><g><g transform="translate(371.9599375035213 365.5697544642858) rotate(0 4.944417408953655 -45.28683035714289)"><path d="M0 0 C3.2229584731661878 -29.51967068113717, 6.4459169463323756 -59.03934136227434, 9.88883481790731 -90.57366071428578 M0 0 C2.5259560255315856 -23.13569679831294, 5.051912051063171 -46.27139359662588, 9.88883481790731 -90.57366071428578" stroke="#000000" stroke-width="1" fill="none"></path></g><g transform="translate(371.9599375035213 365.5697544642858) rotate(0 4.944417408953655 -45.28683035714289)"><path d="M17.02913798848388 -61.435780375588294 C14.701978011768322 -70.93236718859171, 12.374818035052765 -80.42895400159512, 9.88883481790731 -90.57366071428578 M17.02913798848388 -61.435780375588294 C15.205253562264188 -68.87861927097262, 13.381369136044498 -76.32145816635693, 9.88883481790731 -90.57366071428578" stroke="#000000" stroke-width="1" fill="none"></path></g><g transform="translate(371.9599375035213 365.5697544642858) rotate(0 4.944417408953655 -45.28683035714289)"><path d="M-3.370844070331458 -63.66305098910871 C0.9507362989678736 -72.43372814459812, 5.272316668267205 -81.20440530008752, 9.88883481790731 -90.57366071428578 M-3.370844070331458 -63.66305098910871 C0.016144022917791823 -70.53696667662192, 3.4031321161670416 -77.41088236413513, 9.88883481790731 -90.57366071428578" stroke="#000000" stroke-width="1" fill="none"></path></g></g><g transform="translate(422.2198660714286 298.83203125) rotate(0 75 10)"><text x="0" y="14" font-family="Virgil, Segoe UI Emoji" font-size="16px" fill="#000000" text-anchor="start" style="white-space: pre;" direction="ltr">handler updates UI</text></g><g><g transform="translate(53.4754464285715 730.8331473214284) rotate(0 237.34765625 -0.060546875)"><path d="M0 0 C79.11588541666667 -0.020182291666666668, 395.5794270833333 -0.10091145833333333, 474.6953125 -0.12109375 M0 0 C79.11588541666667 -0.020182291666666668, 395.5794270833333 -0.10091145833333333, 474.6953125 -0.12109375" stroke="#000000" stroke-width="1" fill="none"></path></g></g><g transform="translate(237.3426339285715 745.0987723214284) rotate(0 31.5 10)"><text x="0" y="14" font-family="Virgil, Segoe UI Emoji" font-size="16px" fill="#000000" text-anchor="start" style="white-space: pre;" direction="ltr">"isolate"</text></g><g transform="translate(234.5496651785715 698.6222098214284) rotate(0 41.5 10)"><text x="0" y="14" font-family="Virgil, Segoe UI Emoji" font-size="16px" fill="#000000" text-anchor="start" style="white-space: pre;" direction="ltr">"integrate"</text></g><g transform="translate(21.761160714285722 915.8069196428582) rotate(0 94.5 12.5)"><text x="0" y="18" font-family="Virgil, Segoe UI Emoji" font-size="20px" fill="#000000" text-anchor="start" style="white-space: pre;" direction="ltr">js data -&gt; js data</text></g><g transform="translate(347.40680803571416 917.9827008928582) rotate(0 121 12.5)"><text x="0" y="18" font-family="Virgil, Segoe UI Emoji" font-size="20px" fill="#000000" text-anchor="start" style="white-space: pre;" direction="ltr">js data -&gt; DOM element</text></g><g transform="translate(241.27008928571428 1086.2170758928573) rotate(0 37.5 12.5)"><text x="0" y="18" font-family="Virgil, Segoe UI Emoji" font-size="20px" fill="#000000" text-anchor="start" style="white-space: pre;" direction="ltr">js data</text></g><g><g transform="translate(703.5312500000002 50.434709821428555) rotate(0 3.295674000879899 454.35469644750344)"><path d="M0.6031064506620167 0.5514799062162639 C1.6642178594178934 151.8925464262033, 5.914008636329064 756.4721565656188, 7.130749393839824 907.797516832554 M-0.5394013920798897 -0.20459708835929624 C0.2694050299606702 151.29245569657184, 4.698408363949249 757.251408519541, 6.0181442369785785 908.9139899833662" stroke="#000000" stroke-width="1" fill="none"></path></g></g><g><g transform="translate(726.6171875000002 124.31305803571428) rotate(0 209.85327386733672 -3.1134667512029495)"><path d="M-0.3178099159151315 -0.2024511393159628 C69.79093507263984 -1.1385475890090069, 350.18068643827866 -5.312132785345117, 420.0243576505885 -6.024482363089919 M1.716201148889959 -1.3543419327959418 C71.74647690512415 -2.0887517391269403, 349.3242326369224 -3.903578053178886, 419.22386557852036 -4.717293164990842" stroke="#000000" stroke-width="1" fill="none"></path></g></g><g transform="translate(808.0290178571431 50.99386160714283) rotate(0 70 17.5)"><text x="0" y="25" font-family="Virgil, Segoe UI Emoji" font-size="28px" fill="#000000" text-anchor="start" style="white-space: pre;" direction="ltr">Checklists</text></g><g transform="translate(758.1071428571429 156.57310267857144) rotate(0 92.5 40)"><text x="0" y="14" font-family="Virgil, Segoe UI Emoji" font-size="16px" fill="#000000" text-anchor="start" style="white-space: pre;" direction="ltr">STATE (data):</text><text x="0" y="34" font-family="Virgil, Segoe UI Emoji" font-size="16px" fill="#000000" text-anchor="start" style="white-space: pre;" direction="ltr">+ contains only js data</text><text x="0" y="54" font-family="Virgil, Segoe UI Emoji" font-size="16px" fill="#000000" text-anchor="start" style="white-space: pre;" direction="ltr">- has no functions</text><text x="0" y="74" font-family="Virgil, Segoe UI Emoji" font-size="16px" fill="#000000" text-anchor="start" style="white-space: pre;" direction="ltr">- has no DOM element</text></g><g transform="translate(10 275.0552455357142) rotate(0 60.59988839285717 22.472098214285722)"><path d="M1.286997178569436 0.6408067252486944 C29.734112012988472 -0.5640399732134811, 60.35369121813505 -1.953436342670726, 119.29596286666185 0.9983134176582098 M-0.6674241470173001 0.7689993279054761 C46.34359435251673 0.3772568629238128, 91.00884392352293 1.0849550590965271, 121.55417410776556 -0.8868672652170062 M121.69612222564012 -0.9092693421989679 C121.74668766389114 12.336342465823698, 121.55657143721801 28.8551380964782, 121.3354293073395 45.02706779672633 M121.52536289141119 0.36690809298306704 C120.19761779632552 13.39833519330777, 121.27603667702658 27.877170016105616, 122.19534243390501 45.893600240748924 M121.5606466497162 44.49340166284571 C76.3881408466857 46.20212723117258, 31.486854297195222 47.00191314320948, 1.7478366289287806 46.76611144973765 M120.87765945241392 44.018400684398216 C75.69397580447188 43.869820622991874, 27.407137974095747 44.41929852802689, 0.8941831244155765 44.05779509286265 M-0.887923201546073 44.0033345980836 C0.028634894713364556 28.45912261683823, 1.6838212498273477 14.1342614504122, -1.7478646244853735 0.8267114665359259 M0.7283022059127688 44.81997804383616 C0.09502982712490077 34.88041640942124, -0.6157492139269638 25.451311813885706, 0.7045161081478 -0.30294359754770994" stroke="#000000" stroke-width="1" fill="none"></path></g><g transform="translate(25.133928571428612 329.9748883928571) rotate(0 55.5 30)"><text x="0" y="14" font-family="Virgil, Segoe UI Emoji" font-size="16px" fill="#000000" text-anchor="start" style="white-space: pre;" direction="ltr">call handlers</text><text x="0" y="34" font-family="Virgil, Segoe UI Emoji" font-size="16px" fill="#000000" text-anchor="start" style="white-space: pre;" direction="ltr">when an event</text><text x="0" y="54" font-family="Virgil, Segoe UI Emoji" font-size="16px" fill="#000000" text-anchor="start" style="white-space: pre;" direction="ltr">is triggered</text></g><g transform="translate(764.7260044642858 559.6891741071429) rotate(0 126.5 60)"><text x="0" y="14" font-family="Virgil, Segoe UI Emoji" font-size="16px" fill="#000000" text-anchor="start" style="white-space: pre;" direction="ltr">HANLDERS (functions):</text><text x="0" y="34" font-family="Virgil, Segoe UI Emoji" font-size="16px" fill="#000000" text-anchor="start" style="white-space: pre;" direction="ltr">+ read and update the DOM</text><text x="0" y="54" font-family="Virgil, Segoe UI Emoji" font-size="16px" fill="#000000" text-anchor="start" style="white-space: pre;" direction="ltr">+ read &amp; update State</text><text x="0" y="74" font-family="Virgil, Segoe UI Emoji" font-size="16px" fill="#000000" text-anchor="start" style="white-space: pre;" direction="ltr">+ call Logic functions</text><text x="0" y="94" font-family="Virgil, Segoe UI Emoji" font-size="16px" fill="#000000" text-anchor="start" style="white-space: pre;" direction="ltr">+ call View functions</text><text x="0" y="114" font-family="Virgil, Segoe UI Emoji" font-size="16px" fill="#000000" text-anchor="start" style="white-space: pre;" direction="ltr">- use any other script variables</text></g><g transform="translate(768.4614955357144 853.5691964285714) rotate(0 213.5 70.00000000000006)"><text x="0" y="14" font-family="Virgil, Segoe UI Emoji" font-size="16px" fill="#000000" text-anchor="start" style="white-space: pre;" direction="ltr">Code Smells:</text><text x="0" y="34" font-family="Virgil, Segoe UI Emoji" font-size="16px" fill="#000000" text-anchor="start" style="white-space: pre;" direction="ltr">- querying the DOM outside of handlers or listeners</text><text x="0" y="54" font-family="Virgil, Segoe UI Emoji" font-size="16px" fill="#000000" text-anchor="start" style="white-space: pre;" direction="ltr">- variables storing DOM elements outside of handlers</text><text x="0" y="74" font-family="Virgil, Segoe UI Emoji" font-size="16px" fill="#000000" text-anchor="start" style="white-space: pre;" direction="ltr">- functions that do not fit in these 3 categories</text><text x="0" y="94" font-family="Virgil, Segoe UI Emoji" font-size="16px" fill="#000000" text-anchor="start" style="white-space: pre;" direction="ltr">- functions over 30 lines long</text><text x="0" y="114" font-family="Virgil, Segoe UI Emoji" font-size="16px" fill="#000000" text-anchor="start" style="white-space: pre;" direction="ltr">- DOM elements saved in state</text><text x="0" y="134" font-family="Virgil, Segoe UI Emoji" font-size="16px" fill="#000000" text-anchor="start" style="white-space: pre;" direction="ltr"></text></g><g transform="translate(772.3917410714287 709.9375) rotate(0 176 50)"><text x="0" y="14" font-family="Virgil, Segoe UI Emoji" font-size="16px" fill="#000000" text-anchor="start" style="white-space: pre;" direction="ltr">LISTENERS (query + method call):</text><text x="0" y="34" font-family="Virgil, Segoe UI Emoji" font-size="16px" fill="#000000" text-anchor="start" style="white-space: pre;" direction="ltr">+ query the DOM</text><text x="0" y="54" font-family="Virgil, Segoe UI Emoji" font-size="16px" fill="#000000" text-anchor="start" style="white-space: pre;" direction="ltr">+ add event listeners</text><text x="0" y="74" font-family="Virgil, Segoe UI Emoji" font-size="16px" fill="#000000" text-anchor="start" style="white-space: pre;" direction="ltr">+ use handlers as callbacks</text><text x="0" y="94" font-family="Virgil, Segoe UI Emoji" font-size="16px" fill="#000000" text-anchor="start" style="white-space: pre;" direction="ltr">- store DOM elements in variables for later</text></g></svg>